<svg width="332" height="103" viewBox="0 0 332 103" fill="none" xmlns="http://www.w3.org/2000/svg">
<path d="M35.2058 49.2267H30.9249V53.9845H12.132V1.17773H0V5.45947H4.67832V58.2662H35.2058V49.2267Z" fill="white"/>
<path d="M39.7258 38.4435C39.7258 51.209 45.6728 58.8205 56.1398 58.8205C66.6067 58.8205 72.5537 51.209 72.5537 38.4435C72.5537 25.6779 66.6067 18.0664 56.1398 18.0664C45.6728 18.0664 39.7258 25.6779 39.7258 38.4435ZM47.0211 38.4435C47.0211 27.8188 49.7168 22.1898 56.1398 22.1898C62.5628 22.1898 65.2584 27.8188 65.2584 38.4435C65.2584 49.0681 62.5628 54.6982 56.1398 54.6982C49.7168 54.6982 47.0211 49.0692 47.0211 38.4435Z" fill="white"/>
<path d="M84.368 49.3848H80.0861V56.124C84.5264 57.9472 88.174 58.8195 91.4254 58.8195C100.306 58.8195 106.729 55.4897 106.729 48.2745C106.729 41.6936 103.716 38.1258 94.9933 34.796C89.2047 32.5755 87.3017 30.7523 87.3017 27.4225C87.3017 23.9334 89.4427 22.1898 93.3284 22.1898C95.548 22.1898 97.7687 22.7445 99.7513 23.6167V27.5808H104.033V20.7619L103.241 20.4453C99.1967 18.7804 96.025 18.0664 92.9331 18.0664C85.0831 18.0664 80.1668 22.2685 80.1668 27.8985C80.1668 33.8451 82.9421 37.0166 91.1884 40.2677C97.5317 42.8049 99.593 44.8671 99.593 48.5135C99.593 52.637 96.8974 54.6982 91.981 54.6982C89.4437 54.6982 86.6684 54.1435 84.3691 53.2712V49.3858L84.368 49.3848Z" fill="white"/>
<path d="M171.035 58.2662H175.317V1.17773H171.035V45.659L167.784 39.2364L143.996 1.17773H135.274V5.45947H139.714V58.2662H143.996V13.785L147.168 20.0493L171.035 58.2662Z" fill="white"/>
<path d="M181.423 18.6212V22.5853H186.101V58.2651H193.237V18.6212H181.423ZM185.07 5.14277C185.07 7.67994 187.132 9.6625 189.669 9.6625C192.206 9.6625 194.189 7.67994 194.189 5.14277C194.189 2.60559 192.206 0.623047 189.669 0.623047C187.132 0.623047 185.07 2.60559 185.07 5.14277Z" fill="white"/>
<path d="M219.72 55.0148C214.091 55.0148 209.809 48.2755 209.809 38.4435H234.39C234.39 25.6779 229.235 18.0664 218.769 18.0664C208.302 18.0664 202.355 25.6779 202.355 38.4435C202.355 50.4164 210.047 58.8205 219.72 58.8205C226.222 58.8205 232.011 54.8565 232.011 53.0322C232.011 52.4766 231.535 52.1599 230.346 52.1599C230.187 52.1599 226.618 55.0148 219.72 55.0148V55.0148ZM218.769 21.8722C224.32 21.8722 226.54 26.3919 227.016 34.4794H209.889C210.365 26.3919 213.14 21.8722 218.769 21.8722Z" fill="white"/>
<path d="M244.064 45.5792C244.064 54.3797 246.601 58.8197 253.104 58.8197C258.575 58.8197 260.796 55.5696 260.796 53.7454C260.796 53.0314 260.32 52.4768 259.289 52.4768C259.209 52.4768 258.733 55.014 255.087 55.014C252.628 55.014 251.201 53.0314 251.201 45.5792V22.5853H260.954V18.6212H251.201V7.67993L244.144 11.882H244.064V18.6212H238.673V22.5853H244.064V45.5792Z" fill="white"/>
<path d="M264.997 38.4435C264.997 51.209 270.944 58.8205 281.411 58.8205C291.878 58.8205 297.825 51.209 297.825 38.4435C297.825 25.6779 291.878 18.0664 281.411 18.0664C270.944 18.0664 264.997 25.6779 264.997 38.4435ZM272.292 38.4435C272.292 27.8188 274.988 22.1898 281.411 22.1898C287.834 22.1898 290.53 27.8188 290.53 38.4435C290.53 49.0681 287.834 54.6982 281.411 54.6982C274.988 54.6982 272.292 49.0692 272.292 38.4435Z" fill="white"/>
<path d="M309.639 49.3848H305.357V56.124C309.797 57.9472 313.445 58.8195 316.696 58.8195C325.577 58.8195 332 55.4897 332 48.2745C332 41.6936 328.987 38.1258 320.264 34.796C314.476 32.5755 312.573 30.7523 312.573 27.4225C312.573 23.9334 314.714 22.1898 318.599 22.1898C320.819 22.1898 323.04 22.7445 325.022 23.6167V27.5808H329.304V20.7619L328.512 20.4453C324.468 18.7804 321.296 18.0664 318.204 18.0664C310.354 18.0664 305.438 22.2685 305.438 27.8985C305.438 33.8451 308.213 37.0166 316.46 40.2677C322.803 42.8049 324.864 44.8671 324.864 48.5135C324.864 52.637 322.168 54.6982 317.252 54.6982C314.715 54.6982 311.94 54.1435 309.64 53.2712V49.3858L309.639 49.3848Z" fill="white"/>
<path d="M112.237 101.999C109.725 101.999 107.766 101.542 106.363 100.636C104.976 99.7392 103.989 98.2865 103.393 96.2801C103.058 95.1057 102.912 91.6466 102.944 85.911C102.976 80.5263 103.082 77.3444 103.278 76.3739C103.677 74.2206 104.584 72.6457 106.002 71.642C107.422 70.6383 109.445 70.1323 112.073 70.1323C117.172 70.1323 120.174 72.0735 121.079 75.9413L119.007 76.3252C118.656 74.889 117.938 73.845 116.852 73.192C115.751 72.5557 114.16 72.238 112.072 72.238C109.778 72.238 108.115 72.6457 107.079 73.4538C106.198 74.1306 105.619 75.2325 105.333 76.7826C105.121 77.8349 105.023 80.9515 105.023 86.149C105.006 91.5338 105.136 94.7156 105.422 95.6862C105.821 97.0893 106.466 98.1095 107.363 98.7459C108.448 99.5126 110.072 99.8965 112.234 99.8965C114.339 99.8965 115.905 99.5788 116.926 98.9425C117.799 98.3796 118.451 97.4411 118.884 96.1197L120.915 96.7157C120.295 98.5834 119.308 99.9307 117.953 100.754C116.599 101.586 114.69 102.002 112.234 102.002L112.237 101.999Z" fill="white"/>
<path d="M132.414 90.1617C130.823 90.1617 129.55 90.5942 128.587 91.4592C127.648 92.316 127.184 93.4739 127.184 94.9184C127.184 96.8844 127.771 98.2792 128.946 99.1039C129.713 99.6347 130.643 99.8954 131.744 99.8954C134.102 99.8954 135.848 99.1856 136.982 97.7659L137.079 97.6438V91.7458L136.982 91.6238C136.15 90.6532 134.632 90.1637 132.414 90.1637V90.1617ZM131.745 101.999C129.722 101.999 128.107 101.346 126.891 100.057C125.683 98.7841 125.08 97.0706 125.08 94.9173C125.08 92.8613 125.757 91.2057 127.111 89.9485C128.449 88.6924 130.22 88.0643 132.415 88.0643C134.055 88.0643 135.401 88.2847 136.453 88.7327L137.082 88.9935V88.325C137.082 86.6529 136.902 85.4371 136.552 84.6858C136.136 83.8291 135.361 83.2413 134.21 82.9237C133.68 82.7602 133.092 82.6785 132.439 82.6785C130.849 82.6785 129.282 83.0375 127.756 83.7556L126.777 81.92C128.588 81.0394 130.473 80.5986 132.415 80.5986C133.28 80.5986 134.063 80.6969 134.781 80.8925C136.6 81.3985 137.841 82.4022 138.51 83.9026C138.959 84.9383 139.178 86.4563 139.178 88.4637V101.566H136.983C136.82 101.215 136.576 101.035 136.241 101.035C136.111 101.035 135.981 101.068 135.834 101.133C134.414 101.704 133.051 101.998 131.746 101.998L131.745 101.999Z" fill="white"/>
<path d="M150.747 82.8514C148.838 82.8514 147.133 83.3326 145.632 84.3114L145.445 84.4263V98.002L145.632 98.149C147.321 99.3069 149.132 99.8946 151.058 99.8946C152.273 99.8946 153.318 99.4621 154.215 98.6053C155.104 97.7403 155.683 96.5907 155.96 95.1627C156.564 91.9892 156.499 89.1416 155.765 86.6293C155.047 84.1086 153.375 82.8525 150.747 82.8525V82.8514ZM151.058 101.999C149.573 101.999 148.161 101.705 146.807 101.134C146.643 101.069 146.488 101.036 146.325 101.036C146.007 101.036 145.763 101.183 145.584 101.468H143.34V69.2271H145.445V81.9864L146.065 81.7008C147.541 81.0644 149.108 80.7468 150.748 80.7468C154.428 80.7468 156.778 82.5172 157.797 86.0498C158.613 88.8891 158.686 92.0544 158.018 95.5466C157.65 97.4723 156.827 99.0306 155.554 100.23C154.281 101.404 152.78 102 151.059 102L151.058 101.999Z" fill="white"/>
<path d="M169.798 90.1617C168.207 90.1617 166.934 90.5942 165.971 91.4592C165.032 92.316 164.568 93.4739 164.568 94.9184C164.568 96.8844 165.156 98.2792 166.33 99.1039C167.097 99.6347 168.027 99.8954 169.128 99.8954C171.487 99.8954 173.232 99.1856 174.366 97.7659L174.464 97.6438V91.7458L174.366 91.6238C173.534 90.6532 172.016 90.1637 169.798 90.1637V90.1617ZM169.129 101.999C167.106 101.999 165.491 101.346 164.275 100.057C163.067 98.7841 162.464 97.0706 162.464 94.9173C162.464 92.8613 163.141 91.2057 164.495 89.9485C165.833 88.6924 167.604 88.0643 169.799 88.0643C171.439 88.0643 172.785 88.2847 173.838 88.7327L174.466 88.9935V88.325C174.466 86.6529 174.287 85.4371 173.936 84.6858C173.52 83.8291 172.745 83.2413 171.594 82.9237C171.064 82.7602 170.477 82.6785 169.824 82.6785C168.233 82.6785 166.666 83.0375 165.14 83.7556L164.161 81.92C165.972 81.0394 167.857 80.5986 169.799 80.5986C170.664 80.5986 171.447 80.6969 172.165 80.8925C173.985 81.3985 175.225 82.4022 175.894 83.9026C176.343 84.9383 176.562 86.4563 176.562 88.4637V101.566H174.367C174.204 101.215 173.96 101.035 173.625 101.035C173.495 101.035 173.365 101.068 173.218 101.133C171.798 101.704 170.435 101.998 169.13 101.998L169.129 101.999Z" fill="white"/>
<path d="M192.912 101.518V87.5346C192.912 85.6586 192.536 84.361 191.786 83.6595C191.232 83.137 190.391 82.8762 189.281 82.8762C189.134 82.8762 188.979 82.8845 188.825 82.901C186.85 83.0076 184.916 83.6512 183.04 84.8101L182.828 84.9322V101.518H180.723V81.2279H182.893C182.942 81.3831 183.024 81.5217 183.138 81.6273C183.31 81.8228 183.538 81.9211 183.808 81.9211C183.947 81.9211 184.11 81.8891 184.281 81.8228C186.1 81.203 187.577 80.8605 188.702 80.7953C188.898 80.7788 189.086 80.7705 189.282 80.7705C190.954 80.7705 192.268 81.2268 193.222 82.1333C194.405 83.2508 194.993 85.046 194.993 87.5346V101.518H192.912V101.518Z" fill="white"/>
<path d="M206.006 90.1617C204.416 90.1617 203.143 90.5942 202.18 91.4592C201.241 92.316 200.776 93.4739 200.776 94.9184C200.776 96.8844 201.364 98.2792 202.539 99.1039C203.306 99.6347 204.236 99.8954 205.337 99.8954C207.695 99.8954 209.441 99.1856 210.575 97.7659L210.672 97.6438V91.7458L210.575 91.6238C209.743 90.6532 208.225 90.1637 206.006 90.1637V90.1617ZM205.338 101.999C203.315 101.999 201.7 101.346 200.484 100.057C199.276 98.7841 198.673 97.0706 198.673 94.9173C198.673 92.8613 199.349 91.2057 200.704 89.9485C202.042 88.6924 203.813 88.0643 206.007 88.0643C207.648 88.0643 208.994 88.2847 210.046 88.7327L210.674 88.9935V88.325C210.674 86.6529 210.495 85.4371 210.144 84.6858C209.728 83.8291 208.953 83.2413 207.803 82.9237C207.273 82.7602 206.685 82.6785 206.032 82.6785C204.442 82.6785 202.875 83.0375 201.349 83.7556L200.37 81.92C202.181 81.0394 204.066 80.5986 206.007 80.5986C206.872 80.5986 207.656 80.6969 208.374 80.8925C210.193 81.3985 211.434 82.4022 212.102 83.9026C212.551 84.9383 212.771 86.4563 212.771 88.4637V101.566H210.576C210.412 101.215 210.168 101.035 209.834 101.035C209.704 101.035 209.573 101.068 209.426 101.133C208.007 101.704 206.644 101.998 205.339 101.998L205.338 101.999Z" fill="white"/>
<path d="M222.357 101.999C220.154 101.983 218.351 101.379 216.932 100.204L218.368 98.6704C219.404 99.4702 220.742 99.8779 222.382 99.8934C223.859 99.8934 225.034 99.4288 225.89 98.5069C226.608 97.7401 226.934 96.8264 226.877 95.7576C226.747 93.7998 225.262 92.2498 222.431 91.124L222.259 91.0505C220.822 90.4556 219.795 89.9248 219.175 89.4519C218.123 88.6034 217.543 87.5262 217.429 86.2214C217.339 85.0387 217.641 83.9781 218.343 83.0158C219.061 82.0452 220 81.4171 221.158 81.1316C221.794 80.9846 222.406 80.9194 222.977 80.9194C224.519 80.9194 226.004 81.4823 227.423 82.6164L226.037 84.1913C225.05 83.408 224.03 83.0168 222.977 83.0168C222.561 83.0168 222.128 83.0738 221.664 83.1886C221.044 83.3273 220.521 83.6532 220.105 84.1426C219.665 84.6973 219.461 85.3336 219.509 86.0352C219.591 86.7781 219.942 87.3896 220.562 87.846C220.994 88.1802 221.818 88.5962 223.05 89.0939L223.214 89.159C226.869 90.6273 228.786 92.7899 228.974 95.6365C229.087 97.2931 228.574 98.7283 227.423 99.9441C226.134 101.315 224.47 102 222.431 102H222.357V101.999Z" fill="white"/>
<path d="M192.772 74.2911C192.772 75.3589 192.285 76.4268 191.159 76.4268C189.246 76.4268 187.82 73.9465 184.819 73.9465C182.567 73.9465 181.667 75.7728 181.667 77.8392H182.793C182.793 76.8055 183.318 75.7035 184.443 75.7035C186.357 75.7035 187.783 78.1838 190.783 78.1838C193.034 78.1838 193.935 76.3575 193.935 74.2911H192.772V74.2911Z" fill="white"/>
</svg>
