<svg width="1146" height="93" viewBox="0 0 1146 93" fill="none" xmlns="http://www.w3.org/2000/svg">
<path d="M84.1709 1H8.62604C4.41429 1 1 4.43072 1 8.66273V84.5711C1 88.8031 4.41429 92.2338 8.62604 92.2338H84.1709C88.3827 92.2338 91.797 88.8031 91.797 84.5711V8.66273C91.797 4.43072 88.3827 1 84.1709 1Z" fill="black" stroke="#373435" stroke-width="0.19998" stroke-miterlimit="22.9256"/>
<path fill-rule="evenodd" clip-rule="evenodd" d="M50.1941 68.1203L54.9157 67.2867C56.6965 66.399 60.3202 66.402 62.8265 62.9918C63.676 61.8362 63.8076 60.2506 62.9521 58.4869C61.4314 55.3542 58.5846 55.2024 56.4791 53.5528C55.4649 52.7585 54.4277 51.5658 53.4347 50.6997C51.4618 48.9778 47.3226 49.0868 44.0344 50.3707C42.2395 51.0719 41.4881 51.7097 40.6585 52.891C37.6196 57.2181 34.1893 58.4823 33.6876 60.5488C33.4966 61.3346 33.4844 62.2595 33.6542 63.1122C35.2744 71.252 48.6332 67.7918 50.1941 68.1206V68.1203Z" fill="#FEFEFE"/>
<path fill-rule="evenodd" clip-rule="evenodd" d="M50.9876 27.2705L49.602 27.5154C48.3479 28.4569 47.5742 28.3791 46.394 30.7345C43.7733 35.9662 46.4505 43.6475 51.2605 42.8944C56.6527 42.0504 57.9549 31.5007 53.2931 28.182C52.3056 27.4788 52.0512 27.649 50.9874 27.2705H50.9876Z" fill="#FEFEFE"/>
<path fill-rule="evenodd" clip-rule="evenodd" d="M36.1035 30.9287C29.9074 34.352 35.7817 47.8597 41.6197 44.6854C42.9401 43.9676 43.6996 42.4191 43.9445 40.9574C44.9206 35.1315 39.9408 28.8087 36.1035 30.9284V30.9287Z" fill="#FEFEFE"/>
<path fill-rule="evenodd" clip-rule="evenodd" d="M26.1551 46.948L26.4747 48.7728C27.0377 49.6794 27.9956 53.9707 31.8868 55.3685C38.7601 57.8369 38.4576 45.9333 31.9612 42.5805C30.6229 41.8897 28.925 41.5647 27.4948 42.8448C26.0181 44.1656 26.6002 45.0781 26.1554 46.9477L26.1551 46.948Z" fill="#FEFEFE"/>
<path fill-rule="evenodd" clip-rule="evenodd" d="M65.6266 44.0588L65.238 41.8381C64.6318 40.925 64.5364 39.5199 62.7858 38.624C59.6737 37.0318 55.5361 41.9162 56.3552 47.5725C57.2196 53.5439 62.5551 53.8604 64.7606 48.4212C65.4688 46.6744 65.2163 45.5557 65.6266 44.0588Z" fill="#FEFEFE"/>
<path d="M294.968 1H219.423C215.211 1 211.797 4.43072 211.797 8.66273V84.5711C211.797 88.8031 215.211 92.2338 219.423 92.2338H294.968C299.18 92.2338 302.594 88.8031 302.594 84.5711V8.66273C302.594 4.43072 299.18 1 294.968 1Z" fill="black" stroke="#373435" stroke-width="0.19998" stroke-miterlimit="22.9256"/>
<path fill-rule="evenodd" clip-rule="evenodd" d="M252.785 26.6754C247.311 27.4165 242.435 29.2148 238.455 31.6859C236.344 32.9972 234.701 34.3709 233.014 35.7258C229.484 38.5601 232.04 41.1503 233.745 41.2939C235.403 41.4334 236.067 40.3909 236.864 39.5955C238.876 37.5891 243.001 35.2406 245.791 34.0593C255.958 29.7552 267.021 31.5601 275.791 37.7155C276.813 38.4334 277.606 38.9413 278.436 39.8093C282.085 43.6233 286.205 38.8943 281.755 35.4738C278.089 32.6558 275.031 30.2475 269.622 28.4052C264.218 26.5645 258.845 25.8546 252.785 26.6754H252.785Z" fill="#FEFEFE"/>
<path fill-rule="evenodd" clip-rule="evenodd" d="M255.531 41.9155C261.937 41.2214 267.022 43.419 271.459 47.0697C272.645 48.0464 274.288 49.7243 276.155 47.8203C279.126 44.7913 272.782 41.0368 270.844 39.9334C267.713 38.1506 264.056 36.8692 259.851 36.4815C252.268 35.7822 243.299 38.9493 238.736 44.2212C237.12 46.0886 238.611 48.421 240.512 48.6348C243.418 48.9625 245.037 43.0533 255.531 41.9155V41.9155Z" fill="#FEFEFE"/>
<path fill-rule="evenodd" clip-rule="evenodd" d="M254.963 52.1703C263.722 49.8488 265.881 58.672 269.323 55.205C273.955 50.5393 256.478 40.5778 245.784 51.3069C243.6 53.4982 246.034 57.3048 248.898 55.693C249.382 55.4205 249.808 54.8927 250.247 54.5404C251.822 53.2745 252.871 52.7243 254.963 52.17L254.963 52.1703Z" fill="#FEFEFE"/>
<path fill-rule="evenodd" clip-rule="evenodd" d="M263.131 62.9634C264.907 55.4667 254.019 52.9044 251.981 59.805C250.932 63.355 253.289 66.4075 255.984 67.1363C259.528 68.0955 262.521 65.5367 263.131 62.9634V62.9634Z" fill="#FEFEFE"/>
<path d="M505.765 1H430.22C426.008 1 422.594 4.43072 422.594 8.66273V84.5711C422.594 88.8031 426.008 92.2338 430.22 92.2338H505.765C509.977 92.2338 513.391 88.8031 513.391 84.5711V8.66273C513.391 4.43072 509.977 1 505.765 1Z" fill="black" stroke="#373435" stroke-width="0.19998" stroke-miterlimit="22.9256"/>
<path fill-rule="evenodd" clip-rule="evenodd" d="M444.859 36.2508V37.0539C445.6 38.0186 446.133 38.2607 447.298 38.9372C448.013 39.3525 449.343 40.087 449.866 40.5806C448.849 41.5292 445.597 42.1033 446.458 44.2144C447.298 46.2724 450.002 44.411 451.252 43.7832C454.146 42.3287 453.632 42.6923 456.201 44.1378C457.744 45.0053 459.169 45.867 460.649 46.7808C459.674 47.6701 457.667 49.0021 456.317 49.6689C451.497 52.0467 449.054 48.8028 448.375 48.5528C447.348 48.1741 446.595 48.8878 446.376 49.7951C445.982 51.4254 448.427 52.4153 449.932 53.0307L447.342 54.7982C446.413 55.3348 445.525 55.77 444.859 56.6164V57.4959C445.261 58.0367 445.485 58.4181 446.066 58.8095C448.028 58.8811 449.986 56.7165 451.65 56.3185C451.63 57.2324 451.582 58.2814 451.625 59.1849C451.678 60.3305 451.895 60.3022 452.455 60.972C454.973 61.2518 454.849 60.3278 455.035 58.1311C455.253 55.5641 454.885 54.3734 455.895 53.6871L462.509 49.9214C462.693 52.5121 463.029 55.6449 462.111 57.9241C460.941 60.8297 457.79 61.1208 457.346 61.9554C457.174 63.4089 457.815 64.7808 459.413 64.3171C460.886 63.8901 460.776 62.9316 462.623 62.7576C462.606 63.9925 462.615 65.2186 462.615 66.4514C462.614 68.1708 462.539 68.2884 463.607 69.0737H464.876C465.603 68.4476 465.883 68.3368 465.909 67.0508C465.929 66.1232 465.901 65.1568 465.901 64.2236C465.901 59.4965 466.067 28.0761 465.873 26.3149C465.74 25.1135 465.543 25.0888 464.832 24.6172H463.594C462.579 25.5887 462.6 25.7018 462.6 27.4393C462.599 28.6538 462.602 29.8685 462.602 31.0833C460.958 30.8079 459.438 28.4836 457.925 29.6544C456.005 31.1397 458.314 32.6369 459.583 33.4649C462.132 35.1285 462.627 35.2018 462.615 37.141C462.602 39.3715 462.592 41.6026 462.623 43.8325C450.73 39.0941 456.766 34.0391 454.005 32.8038C452.822 32.4296 451.901 32.81 451.685 33.9152C451.47 35.01 451.932 36.2289 451.528 37.1056C451.056 37.6515 448.551 35.8059 448.193 35.6105C447.305 35.1249 446.175 34.4427 445.381 35.4412C445.197 35.672 445.306 35.5725 445.137 35.8383L444.859 36.2514V36.2508Z" fill="#FEFEFE"/>
<path fill-rule="evenodd" clip-rule="evenodd" d="M487.721 36.1897C479.805 36.8772 478.675 35.7914 479.833 27.8249C478.666 28.5213 477.896 29.2823 476.8 30.042C475.731 30.7824 474.573 31.2125 473.022 30.876C470.14 30.2505 469.865 26.9062 468.607 25.2659C468.43 26.6561 468.22 32.2582 468.945 32.9526C469.731 33.7055 472.241 33.3886 475.052 34.9034C478.315 36.6619 481.029 39.651 482.129 43.9436C483.832 50.5908 480.553 56.9645 475.059 60.0047C472.216 61.5779 470.37 61.3008 468.764 61.771C468.348 63.0573 468.549 67.0276 468.55 68.7366C468.745 68.5649 468.689 68.6442 468.89 68.3811C469.029 68.1993 469.006 68.2062 469.131 67.9923L470.385 65.8236C470.982 65.0294 471.797 64.1809 473.218 64.0071C476.292 63.6305 477.436 66.2082 479.55 66.8756C478.824 59.7359 479.861 57.5499 487.69 58.7486C486.967 57.2443 483.874 54.0099 484.976 51.7946C485.944 49.848 489.877 48.4343 490.717 47.3933C488.931 46.5073 485.364 45.3882 484.978 43.3205C484.578 41.1767 487.142 37.9542 487.722 36.1897H487.721Z" fill="#FEFEFE"/>
<path fill-rule="evenodd" clip-rule="evenodd" d="M468.769 58.5796C471.502 59.3248 475.3 56.6865 476.51 55.407C478.143 53.6799 479.715 50.8886 479.697 47.4502C479.658 39.9497 472.557 35.3393 468.731 36.2757C468.307 37.6461 468.334 57.2193 468.769 58.5796Z" fill="#FEFEFE"/>
<path d="M716.562 1H641.017C636.805 1 633.391 4.43072 633.391 8.66273V84.5711C633.391 88.8031 636.805 92.2338 641.017 92.2338H716.562C720.774 92.2338 724.188 88.8031 724.188 84.5711V8.66273C724.188 4.43072 720.774 1 716.562 1Z" fill="black" stroke="#373435" stroke-width="0.19998" stroke-miterlimit="22.9256"/>
<path fill-rule="evenodd" clip-rule="evenodd" d="M694.363 28.7625C696.026 27.214 695.331 26.7722 695.025 24.2036C694.347 24.5165 692.716 26.7438 692.233 27.2771C691.825 27.7285 691.715 27.7334 691.312 28.2653L685.987 34.4107C685.421 35.087 684.82 35.7819 684.248 36.5006C683.12 37.9175 681.462 38.5144 684.054 41.0112C683.478 41.9513 680.012 44.8231 678.552 46.5397C676.642 48.7873 673.767 51.1596 671.556 53.3552C670.789 54.1173 671.012 53.9597 669.86 54.4187C667.69 55.2843 665.521 57.8887 663.844 59.4432C662.445 60.7408 659.267 63.6917 659.019 65.5263C658.805 67.1065 660.224 68.4914 661.438 68.6899C663.563 69.0367 667.005 65.0802 667.921 64.1854C673.996 58.2568 673.05 57.3243 673.895 56.3476L677.844 52.4388C678.14 52.6742 682.123 56.7034 682.228 56.9142C682.477 57.4114 682.586 58.0506 682.906 58.588L689.193 65.4772C690.731 67.0792 693.369 70.302 695.881 67.7828C697.827 65.8316 695.806 63.3143 694.469 62.0948C692.351 60.1616 688.996 56.0789 686.384 54.6604C685.893 54.3936 685.227 54.2877 684.84 54.081C684.482 53.8898 680.825 50.0788 680.48 49.7083L686.321 43.5337C687.275 43.9364 687.613 45.0382 688.937 44.8826C689.598 44.8053 691.26 43.1492 692.231 42.3858L703.345 32.7052C702.812 32.3439 701.52 32.2183 700.716 32.1397C699.425 32.0132 699.773 32.3679 698.867 33.0795L689.205 41.5641C688.506 40.8411 686.397 38.9756 686.026 38.2143L694.362 28.762L694.363 28.7625Z" fill="#FEFEFE"/>
<path fill-rule="evenodd" clip-rule="evenodd" d="M655.593 34.4085C655.929 33.4706 656.166 33.1937 657.235 33.1224C658.802 35.0297 659.73 35.7814 661.475 37.5151C662.317 38.3506 665.563 41.2035 665.822 42.0767C665.493 42.66 665.478 42.7621 664.785 43.0605C663.98 42.6963 656.552 35.7443 655.592 34.4085H655.593ZM658.45 31.4262C659.599 28.7959 661.152 31.3866 664.258 34.5131C667.338 37.6131 670.081 39.4475 667.328 40.4455C666.456 40.0143 661.779 35.1444 660.469 33.8463C660.061 33.4422 659.827 33.1907 659.402 32.7866C658.252 31.6927 658.719 31.9874 658.45 31.426V31.4262ZM661.3 28.6574C662.219 26.1142 663.404 28.0005 664.155 28.8702L669.543 34.5232C670.184 35.2615 672.29 36.9488 670.084 37.6642C669.124 37.1082 666.673 34.2305 665.7 33.2781L663.384 31.1338C662.244 29.958 661.925 29.8529 661.3 28.6577V28.6574ZM669.236 43.5843C669.97 44.2142 670.717 45.0877 671.427 45.8405C672.062 46.5144 672.97 47.2588 673.688 47.9903L676.174 45.6759C675.519 44.9181 674.78 44.2235 673.914 43.3382C673.636 43.0532 673.602 43.0589 673.376 42.8148L671.676 41.0708C672.267 40.3406 673.712 39.1539 674.122 38.4522C675.086 36.8008 673.376 35.9109 672.673 35.0021C670.959 32.7866 666.913 28.5826 665.24 26.5022C661.537 21.8988 662.372 23.0131 654.119 31.1496C653.51 31.7503 651.773 33.0323 652.048 34.3659C652.19 35.0578 655.216 37.5629 656.057 38.2911L661.696 43.2691C662.367 43.978 662.597 43.9914 663.179 44.5454C663.961 45.2914 664.89 46.8175 666.45 46.1062C667.385 45.681 668.283 44.1743 669.236 43.584L669.236 43.5843Z" fill="#FEFEFE"/>
<path d="M927.359 1H851.814C847.602 1 844.188 4.43072 844.188 8.66273V84.5711C844.188 88.8031 847.602 92.2338 851.814 92.2338H927.359C931.571 92.2338 934.985 88.8031 934.985 84.5711V8.66273C934.985 4.43072 931.571 1 927.359 1Z" fill="black" stroke="#373435" stroke-width="0.19998" stroke-miterlimit="22.9256"/>
<path fill-rule="evenodd" clip-rule="evenodd" d="M899.664 53.1909C901.686 52.5438 903.449 54.0548 903.856 55.5419C904.44 57.6717 903.135 59.3423 901.59 59.8177C897.31 61.1346 895.004 54.6821 899.664 53.1909H899.664ZM876.897 53.1732C878.836 52.5451 880.698 54.06 881.087 55.5632C881.644 57.7146 880.265 59.4436 878.645 59.8709C874.478 60.9694 872.274 54.6698 876.897 53.1734L876.897 53.1732ZM884.522 42.6393C885.557 42.3782 889.49 42.5251 890.86 42.5284C893.429 42.5358 894.317 42.6709 895.598 44.1528C896.075 44.7046 897.237 47.7907 897.388 48.7185C897.551 49.7146 897.031 50.3967 896.288 50.7037C895.454 51.0485 888.058 50.8746 886.845 50.8757C885.398 50.8773 881.875 51.1539 880.937 50.4565C879.617 49.4746 880.704 47.3328 881.276 45.7704C881.888 44.0971 882.717 43.0933 884.522 42.639V42.6393ZM874.886 50.5761C872.748 50.5731 871.385 50.2048 870.337 51.7631C869.462 53.0642 869.66 55.0693 869.663 56.8629C869.665 58.6763 869.398 60.671 870.333 61.9647C871.366 63.393 872.371 63.455 874.51 63.5249C874.922 64.8238 874.755 65.27 875.645 66.1648C877.085 67.6131 879.462 67.7139 880.997 66.1419C881.934 65.1826 881.743 64.8629 882.141 63.514L895.421 63.532C895.712 64.3932 895.567 64.6775 896.038 65.4723C897.568 68.0527 901.634 67.8984 902.75 64.7774C902.861 64.4689 902.904 63.8916 902.96 63.7494C903.102 63.3903 903.33 63.4963 903.868 63.5072C905.097 63.5331 905.909 63.567 906.985 62.9207C909.296 61.5333 908.646 57.8227 908.656 54.6627C908.672 49.7482 905.074 50.6286 902.945 50.5715C902.265 49.5025 900.231 43.3973 899.093 41.7445C896.924 38.5923 892.726 39.4254 888.913 39.3959C884.326 39.3607 880.904 38.766 878.688 41.8204C877.727 43.1441 875.509 49.7848 874.886 50.5764V50.5761Z" fill="#FEFEFE"/>
<path fill-rule="evenodd" clip-rule="evenodd" d="M862.15 42.1765C862.696 42.8687 863.455 44.4412 865.452 43.9235C866.187 43.7331 868.131 42.4514 868.884 41.9935L885.651 31.947C887.08 31.1202 888.251 30.0026 889.04 30.4433C893.554 32.9669 898.068 35.6827 902.624 38.1953C903.89 38.893 912.066 43.7681 913 43.9401C914.492 44.2151 916.231 43.0317 916.135 41.7581L916.113 40.7396C916.148 39.3883 914.328 38.6186 913.353 38.0484L892.714 26.274C888.721 24.0309 889.057 23.4853 885.262 25.8142L875.137 31.8957C871.969 33.783 868.083 36.2334 865.009 37.9782C862.964 39.1387 863.199 38.8561 862.15 40.4513V42.1762V42.1765Z" fill="#FEFEFE"/>
<path d="M1138.16 1H1062.61C1058.4 1 1054.98 4.43072 1054.98 8.66273V84.5711C1054.98 88.8031 1058.4 92.2338 1062.61 92.2338H1138.16C1142.37 92.2338 1145.78 88.8031 1145.78 84.5711V8.66273C1145.78 4.43072 1142.37 1 1138.16 1Z" fill="black" stroke="#373435" stroke-width="0.19998" stroke-miterlimit="22.9256"/>
<path fill-rule="evenodd" clip-rule="evenodd" d="M1065.49 56.0777C1067.71 57.9386 1068.62 59.8333 1072 61.1852C1075.75 62.684 1078.69 62.0475 1081.93 60.389C1091.19 55.6463 1090.8 63.4398 1099.55 63.6605C1109.12 63.9018 1108.79 55.7599 1117.47 60.0545C1125.92 64.2325 1129.94 61.0266 1134.2 56.217C1130.76 56.5108 1129.26 59.0043 1124.79 57.9801C1120.6 57.023 1116.77 49.9411 1108.23 52.8579C1105.22 53.8846 1103.09 56.2847 1099.84 56.2842C1096.34 56.2839 1094.88 53.7753 1091.79 52.8289C1082.89 50.1044 1079.21 57.1276 1074.93 58.0254C1071.44 58.7572 1068.64 56.6408 1065.49 56.0772L1065.49 56.0777Z" fill="#FEFEFE"/>
<path fill-rule="evenodd" clip-rule="evenodd" d="M1097.38 39.8105L1099.41 43.1731C1096.84 46.1636 1094.48 47.4505 1091.94 50.6737C1096.32 51.3904 1098.34 56.0073 1102.77 53.2874C1106.85 50.7804 1108.85 49.6899 1114.8 50.2603C1113.93 48.3959 1108.36 41.7456 1106.82 39.909C1105.36 38.1724 1104.12 36.5701 1102.75 34.9616C1099.6 31.2753 1099.82 31.7586 1090.49 35.3553C1088.57 36.0975 1085.17 36.6133 1084.65 38.5806C1084.28 39.9579 1084.88 41.0895 1085.95 41.5752C1087.37 42.2139 1095.6 40.1327 1097.38 39.8102L1097.38 39.8105Z" fill="#FEFEFE"/>
<path fill-rule="evenodd" clip-rule="evenodd" d="M1115.15 34.2738C1106.94 36.6049 1110.59 49.519 1119.06 46.934C1121.88 46.0728 1124.49 42.7331 1123.4 38.8292C1122.51 35.6833 1119.39 33.0691 1115.15 34.2738V34.2738Z" fill="#FEFEFE"/>
</svg>
