<svg width="330" height="112" viewBox="0 0 330 112" fill="none" xmlns="http://www.w3.org/2000/svg">
<path fill-rule="evenodd" clip-rule="evenodd" d="M0.0506592 110.432C4.71863 83.9129 21.8166 50.8324 38.1912 28.3341C93.5663 -47.748 126.175 49.2213 158.448 87.966C166.229 97.3076 173.091 103.751 182.547 111.65C170.367 103.056 161.773 95.8931 151.826 85.1349C135.192 67.1429 106.057 19.5885 83.9499 12.6144C56.4719 3.9464 26.5073 91.5492 24.745 110.506L0.051694 110.432H0.0506592Z" fill="black"/>
<path fill-rule="evenodd" clip-rule="evenodd" d="M133.566 60.9997C147.449 41.2828 173.307 3.05864 205.331 33.5089C218.656 46.1792 228.937 62.2663 242.969 75.871C265.661 97.8726 290.454 110.256 329.836 110.927C285.579 112.168 257.731 97.4638 231.744 73.5304C220.927 63.568 198.004 36.3947 186.271 31.876C171.151 26.0536 152.87 59.6556 149.107 65.9747L133.566 60.9997V60.9997Z" fill="black"/>
<path fill-rule="evenodd" clip-rule="evenodd" d="M136.822 60.9046C143.992 68.8099 154.312 83.616 154.312 83.616C147.33 70.8918 153.054 58.2505 158.427 50.1174C150.829 51.5205 136.822 60.9046 136.822 60.9046Z" fill="black" stroke="black" stroke-width="0.199807" stroke-miterlimit="22.9256" stroke-linejoin="round"/>
</svg>
