<?xml version="1.0" encoding="UTF-8"?>
<!DOCTYPE svg PUBLIC "-//W3C//DTD SVG 1.1//EN" "http://www.w3.org/Graphics/SVG/1.1/DTD/svg11.dtd">
<!-- Creator: CorelDRAW 2020 (64-Bit Versión de evaluación) -->
<svg xmlns="http://www.w3.org/2000/svg" xml:space="preserve" width="228.954mm" height="24.0125mm" version="1.1" style="shape-rendering:geometricPrecision; text-rendering:geometricPrecision; image-rendering:optimizeQuality; fill-rule:evenodd; clip-rule:evenodd"
viewBox="0 0 32125.43 3369.29"
 xmlns:xlink="http://www.w3.org/1999/xlink"
 xmlns:xodm="http://www.corel.com/coreldraw/odm/2003">
 <defs>
  <style type="text/css">
   <![CDATA[
    .str0 {stroke:#373435;stroke-width:28.06;stroke-miterlimit:22.9256}
    .fil1 {fill:#FEFEFE}
    .fil0 {fill:#373435}
   ]]>
  </style>
 </defs>
 <g id="Capa_x0020_1">
  <metadata id="CorelCorpID_0Corel-Layer"/>
  <rect class="fil0 str0" x="14.02" y="14.02" width="3341.23" height="3341.23" rx="280.63" ry="280.63"/>
  <g id="_2776828735248">
   <path class="fil1" d="M1824.31 2472.15l173.75 -30.53c65.53,-32.51 198.88,-32.4 291.11,-157.29 31.26,-42.32 36.1,-100.39 4.62,-164.98 -55.96,-114.73 -160.72,-120.29 -238.2,-180.7 -37.32,-29.09 -75.49,-72.77 -112.03,-104.49 -72.6,-63.06 -224.92,-59.07 -345.92,-12.05 -66.05,25.68 -93.7,49.04 -124.23,92.3 -111.83,158.47 -238.06,204.77 -256.52,280.45 -7.03,28.78 -7.48,62.65 -1.23,93.88 59.62,298.1 551.21,171.38 608.65,183.42z"/>
   <path class="fil1" d="M1853.51 976.12l-50.99 8.97c-46.15,34.48 -74.62,31.63 -118.05,117.89 -96.44,191.6 2.08,472.91 179.08,445.33 198.43,-30.91 246.35,-417.27 74.8,-538.81 -36.34,-25.75 -45.7,-19.52 -84.85,-33.38z"/>
   <path class="fil1" d="M1305.79 1110.09c-228.01,125.37 -11.84,620.06 202.99,503.81 48.59,-26.29 76.54,-83 85.55,-136.53 35.92,-213.36 -147.33,-444.92 -288.54,-367.29z"/>
   <path class="fil1" d="M939.7 1696.76l11.76 66.83c20.72,33.2 55.97,190.36 199.16,241.55 252.93,90.4 241.8,-345.54 2.74,-468.33 -49.25,-25.3 -111.73,-37.2 -164.36,9.68 -54.34,48.37 -32.92,81.79 -49.29,150.26z"/>
   <path class="fil1" d="M2392.21 1590.96l-14.3 -81.33c-22.31,-33.44 -25.82,-84.9 -90.24,-117.71 -114.52,-58.31 -266.78,120.57 -236.64,327.72 31.81,218.69 228.15,230.28 309.31,31.08 26.06,-63.97 16.77,-104.94 31.87,-159.76z"/>
  </g>
  <rect class="fil0 str0" x="5428.53" y="14.02" width="3341.23" height="3341.23" rx="280.63" ry="280.63"/>
  <g id="_2776828668768">
   <path class="fil1" d="M6936.85 954.32c-201.46,27.14 -380.87,93 -527.34,183.5 -77.69,48.02 -138.15,98.33 -200.21,147.95 -129.89,103.8 -35.84,198.66 26.88,203.92 61.02,5.11 85.47,-33.07 114.8,-62.2 74.02,-73.48 225.82,-159.49 328.49,-202.75 374.13,-157.63 781.23,-91.53 1103.96,133.9 37.63,26.29 66.8,44.89 97.36,76.68 134.27,139.68 285.88,-33.51 122.13,-158.78 -134.9,-103.2 -247.43,-191.4 -446.48,-258.87 -198.87,-67.41 -396.61,-93.41 -619.6,-63.35z"/>
   <path class="fil1" d="M7037.91 1512.45c235.71,-25.42 422.85,55.06 586.11,188.76 43.65,35.77 104.11,97.22 172.82,27.49 109.33,-110.93 -124.12,-248.43 -195.44,-288.84 -115.21,-65.29 -249.8,-112.22 -404.53,-126.42 -279.04,-25.61 -609.09,90.38 -777,283.45 -59.48,68.39 -4.6,153.81 65.36,161.64 106.93,12 166.5,-204.41 552.68,-246.08z"/>
   <path class="fil1" d="M7017.01 1888.01c322.3,-85.02 401.76,238.11 528.42,111.14 170.44,-170.87 -472.7,-535.69 -866.2,-142.76 -80.37,80.25 9.2,219.66 114.59,160.63 17.79,-9.98 33.49,-29.31 49.64,-42.21 57.96,-46.36 96.56,-66.51 173.54,-86.81z"/>
   <path class="fil1" d="M7317.55 2283.29c65.36,-274.55 -335.28,-368.39 -410.29,-115.67 -38.6,130.01 48.14,241.8 147.29,268.49 130.44,35.13 240.57,-58.58 263,-152.82z"/>
  </g>
  <rect class="fil0 str0" x="11692.29" y="14.02" width="3341.23" height="3341.23" rx="280.63" ry="280.63"/>
  <rect class="fil0 str0" x="17106.8" y="14.02" width="3341.23" height="3341.23" rx="280.63" ry="280.63"/>
  <g id="_2776828668000">
   <path class="fil1" d="M12553.67 1297.5l0 27.04c25.05,32.48 43.08,40.63 82.52,63.41 24.19,13.98 69.17,38.71 86.88,55.33 -34.41,31.94 -144.45,51.27 -115.3,122.35 28.41,69.29 119.88,6.62 162.16,-14.52 97.94,-48.97 80.53,-36.73 167.45,11.94 52.2,29.21 100.42,58.22 150.47,88.99 -32.96,29.94 -100.86,74.79 -146.56,97.24 -163.06,80.06 -245.7,-29.16 -268.66,-37.58 -34.76,-12.75 -60.24,11.28 -67.66,41.83 -13.32,54.89 69.41,88.22 120.31,108.94l-87.61 59.51c-31.42,18.07 -61.46,32.72 -84.01,61.22l0 29.61c13.61,18.21 21.17,31.05 40.82,44.23 66.4,2.41 132.65,-70.47 188.93,-83.87 -0.67,30.77 -2.29,66.09 -0.86,96.51 1.81,38.57 9.15,37.62 28.1,60.17 85.17,9.42 80.98,-21.69 87.29,-95.65 7.38,-86.43 -5.07,-126.52 29.07,-149.63l223.79 -126.79c6.22,87.23 17.58,192.71 -13.48,269.45 -39.58,97.83 -146.17,107.63 -161.21,135.73 -5.82,48.94 15.86,95.13 69.93,79.52 49.85,-14.38 46.11,-46.65 108.6,-52.51 -0.56,41.58 -0.27,82.86 -0.28,124.37 -0.01,57.89 -2.55,61.85 33.58,88.29l42.91 0c24.6,-21.08 34.08,-24.81 34.98,-68.11 0.65,-31.23 -0.29,-63.77 -0.29,-95.19 0.01,-159.16 5.61,-1217.07 -0.95,-1276.37 -4.48,-40.45 -11.17,-41.28 -35.2,-57.16l-41.91 0c-34.31,32.71 -33.61,36.52 -33.63,95.02 -0.01,40.89 0.1,81.79 0.1,122.69 -55.65,-9.27 -107.07,-87.53 -158.26,-48.11 -64.95,50.01 13.19,100.42 56.11,128.3 86.25,56.01 102.98,58.48 102.58,123.77 -0.46,75.1 -0.79,150.22 0.28,225.3 -402.36,-159.54 -198.17,-329.74 -291.59,-371.33 -40.02,-12.6 -71.17,0.21 -78.49,37.42 -7.25,36.86 8.38,77.9 -5.3,107.42 -15.97,18.38 -100.72,-43.76 -112.81,-50.34 -30.04,-16.35 -68.28,-39.32 -95.15,-5.7 -6.22,7.77 -2.53,4.42 -8.26,13.37l-9.39 13.91z"/>
   <path class="fil1" d="M14003.76 1295.44c-267.83,23.15 -306.05,-13.41 -266.86,-281.64 -39.51,23.45 -65.53,49.07 -102.64,74.65 -36.14,24.93 -75.33,39.41 -127.81,28.08 -97.48,-21.06 -106.79,-133.66 -149.35,-188.89 -5.98,46.81 -13.09,235.43 11.42,258.81 26.59,25.35 111.51,14.68 206.6,65.68 110.41,59.21 202.22,159.85 239.43,304.38 57.63,223.81 -53.32,438.41 -239.19,540.77 -96.17,52.97 -158.63,43.64 -212.97,59.47 -14.05,43.31 -7.25,176.99 -7.24,234.53 6.62,-5.78 4.71,-3.11 11.53,-11.97 4.7,-6.12 3.9,-5.89 8.14,-13.09l42.42 -73.02c20.19,-26.74 47.76,-55.31 95.85,-61.16 103.99,-12.68 142.7,74.11 214.23,96.58 -24.57,-240.39 10.52,-313.99 275.37,-273.63 -24.44,-50.65 -129.09,-159.55 -91.82,-234.14 32.76,-65.54 165.82,-113.14 194.22,-148.19 -60.42,-29.83 -181.1,-67.51 -194.15,-137.13 -13.53,-72.18 73.23,-180.68 92.83,-240.09z"/>
   <path class="fil1" d="M13362.57 2049.3c92.45,25.09 220.94,-63.74 261.88,-106.82 55.27,-58.15 108.43,-152.13 107.83,-267.9 -1.32,-252.54 -241.54,-407.77 -371,-376.24 -14.33,46.14 -13.44,705.16 1.29,750.96z"/>
  </g>
  <g id="_2776828674816">
   <path class="fil1" d="M19350.5 1030.76c61.2,-56.71 35.61,-72.89 24.37,-166.96 -24.96,11.46 -84.97,93.03 -102.74,112.56 -15.04,16.53 -19.07,16.71 -33.89,36.19l-195.96 225.06c-20.82,24.77 -42.94,50.22 -64,76.54 -41.52,51.89 -102.53,73.75 -7.13,165.19 -21.2,34.43 -148.75,139.6 -202.47,202.47 -70.3,82.31 -176.09,169.19 -257.46,249.6 -28.23,27.91 -20.01,22.14 -62.4,38.95 -79.87,31.7 -159.68,127.08 -221.37,184.01 -51.5,47.52 -168.43,155.59 -177.58,222.78 -7.87,57.87 44.34,108.59 89.03,115.86 78.18,12.7 204.86,-132.2 238.58,-164.97 223.53,-217.12 188.74,-251.27 219.82,-287.04l145.32 -143.15c10.9,8.62 157.46,156.18 161.33,163.9 9.15,18.21 13.19,41.62 24.96,61.3l231.36 252.3c56.59,58.67 153.64,176.7 246.08,84.44 71.62,-71.46 -2.75,-163.65 -51.94,-208.31 -77.96,-70.8 -201.42,-220.32 -297.51,-272.27 -18.07,-9.77 -42.6,-13.65 -56.83,-21.22 -13.19,-7 -147.75,-146.57 -160.44,-160.14l214.93 -226.13c35.13,14.75 47.57,55.1 96.28,49.4 24.3,-2.83 85.49,-63.48 121.22,-91.44l408.97 -354.53c-19.62,-13.23 -67.15,-17.83 -96.73,-20.71 -47.52,-4.63 -34.71,8.36 -68.05,34.42l-355.57 310.73c-25.71,-26.48 -103.3,-94.8 -116.98,-122.68l306.78 -346.17z"/>
   <path class="fil1" d="M17923.81 1237.53c12.36,-34.35 21.09,-44.49 60.43,-47.1 57.66,69.85 91.81,97.38 156.04,160.87 30.98,30.6 150.42,135.08 159.94,167.06 -12.1,21.36 -12.67,25.1 -38.17,36.03 -29.62,-13.34 -302.94,-267.94 -338.26,-316.86zm105.12 -109.22c42.28,-96.33 99.44,-1.45 213.74,113.05 113.33,113.53 214.3,180.71 112.99,217.26 -32.12,-15.79 -204.2,-194.14 -252.41,-241.68 -15.01,-14.8 -23.63,-24.01 -39.27,-38.81 -42.32,-40.06 -25.13,-29.27 -35.05,-49.83zm104.88 -101.4c33.83,-93.14 77.45,-24.06 105.07,7.79l198.28 207.03c23.57,27.04 101.07,88.83 19.92,115.03 -35.33,-20.36 -125.54,-125.75 -161.35,-160.63l-85.2 -78.53c-41.97,-43.06 -53.7,-46.91 -76.72,-90.68zm292.06 546.66c27,23.07 54.48,55.06 80.61,82.63 23.38,24.68 56.79,51.94 83.21,78.73l91.47 -84.76c-24.11,-27.75 -51.28,-53.19 -83.14,-85.61 -10.26,-10.44 -11.49,-10.23 -19.8,-19.17l-62.59 -63.87c21.78,-26.74 74.93,-70.2 90.03,-95.9 35.49,-60.48 -27.45,-93.07 -53.31,-126.35 -63.07,-81.14 -211.96,-235.1 -273.54,-311.29 -136.26,-168.59 -105.53,-127.78 -409.23,170.2 -22.42,22 -86.35,68.95 -76.23,117.79 5.25,25.34 116.6,117.08 147.55,143.75l207.48 182.31c24.7,25.96 33.18,26.45 54.58,46.74 28.79,27.32 62.97,83.21 120.39,57.16 34.38,-15.57 67.45,-70.75 102.51,-92.37z"/>
  </g>
  <rect class="fil0 str0" x="23355.66" y="14.02" width="3341.23" height="3341.23" rx="280.63" ry="280.63"/>
  <rect class="fil0 str0" x="28770.17" y="14.02" width="3341.23" height="3341.23" rx="280.63" ry="280.63"/>
  <g id="_2776828682688">
   <path class="fil1" d="M25397.1 1925.39c74.44,-23.7 139.29,31.64 154.28,86.1 21.47,78 -26.55,139.18 -83.4,156.59 -157.47,48.23 -242.35,-188.08 -70.87,-242.69zm-837.8 -0.65c71.36,-23 139.88,32.48 154.21,87.53 20.5,78.79 -30.27,142.11 -89.87,157.76 -153.34,40.23 -234.45,-190.48 -64.33,-245.28zm280.61 -385.78c38.1,-9.56 182.8,-4.18 233.22,-4.06 94.53,0.27 127.24,5.22 174.38,59.49 17.55,20.21 60.28,133.23 65.86,167.21 5.98,36.48 -13.13,61.46 -40.48,72.7 -30.71,12.63 -302.85,6.26 -347.49,6.3 -53.26,0.06 -182.91,10.19 -217.4,-15.35 -48.58,-35.96 -8.59,-114.4 12.45,-171.62 22.53,-61.28 53.05,-98.04 119.46,-114.68zm-354.6 290.67c-78.69,-0.11 -128.82,-13.6 -167.38,43.47 -32.2,47.65 -24.91,121.08 -24.82,186.77 0.08,66.41 -9.75,139.46 24.67,186.84 38,52.31 74.97,54.58 153.69,57.14 15.17,47.57 9.04,63.91 41.77,96.68 53,53.04 140.48,56.73 196.94,-0.84 34.48,-35.13 27.46,-46.84 42.12,-96.24l488.67 0.66c10.72,31.54 5.4,41.95 22.73,71.06 56.27,94.5 205.92,88.85 246.98,-25.45 4.07,-11.3 5.65,-32.44 7.72,-37.65 5.23,-13.15 13.62,-9.27 33.42,-8.87 45.24,0.95 75.1,2.19 114.71,-21.48 85.03,-50.81 61.11,-186.7 61.49,-302.43 0.59,-179.98 -131.83,-147.74 -210.15,-149.83 -25.03,-39.15 -99.89,-262.74 -141.75,-323.27 -79.82,-115.44 -234.3,-84.93 -374.62,-86.01 -168.8,-1.29 -294.72,-23.07 -376.28,88.79 -35.36,48.48 -116.99,291.68 -139.91,320.67z"/>
   <path class="fil1" d="M24016.63 1522.01c20.12,25.35 48.02,82.94 121.51,63.98 27.05,-6.97 98.61,-53.91 126.32,-70.68l616.99 -367.93c52.6,-30.28 95.69,-71.21 124.7,-55.07 166.13,92.42 332.24,191.88 499.91,283.9 46.57,25.55 347.42,204.09 381.79,210.39 54.92,10.07 118.9,-33.27 115.37,-79.91l-0.79 -37.3c1.29,-49.49 -65.68,-77.68 -101.59,-98.56l-759.49 -431.21c-146.91,-82.15 -134.55,-102.13 -274.2,-16.84l-372.6 222.72c-116.59,69.12 -259.58,158.86 -372.7,222.76 -75.26,42.5 -66.62,32.15 -105.22,90.57l0 63.17z"/>
  </g>
  <g id="_2776828684656">
   <path class="fil1" d="M29156.6 2031.12c81.79,68.15 115.46,137.54 239.85,187.05 137.93,54.89 245.89,31.58 365.15,-29.16 341.02,-173.69 326.51,111.73 648.59,119.81 351.94,8.84 339.78,-289.34 659.36,-132.06 310.91,153.01 458.86,35.6 615.54,-140.54 -126.44,10.76 -181.73,102.08 -346.35,64.57 -153.87,-35.05 -295.07,-294.41 -609.34,-187.59 -110.65,37.6 -189.17,125.5 -308.68,125.48 -128.82,-0.01 -182.63,-91.88 -296.27,-126.54 -327.24,-99.78 -462.67,157.43 -620.22,190.31 -128.37,26.8 -231.45,-50.71 -347.64,-71.35z"/>
   <path class="fil1" d="M30330.41 1435.37l74.58 123.15c-94.59,109.52 -181.51,156.65 -274.93,274.69 161.09,26.25 235.52,195.33 398.48,95.72 150.25,-91.81 223.91,-131.75 442.62,-110.86 -31.91,-68.28 -236.91,-311.83 -293.64,-379.09 -53.64,-63.6 -99.05,-122.28 -149.62,-181.19 -115.91,-135 -107.99,-117.3 -451,14.42 -70.76,27.18 -196.03,46.07 -215.23,118.12 -13.44,50.44 8.59,91.88 48.14,109.67 51.97,23.39 354.92,-52.83 420.59,-64.64z"/>
   <path class="fil1" d="M30984.09 1232.6c-301.86,85.37 -167.89,558.32 143.86,463.65 103.92,-31.54 200.03,-153.85 159.68,-296.82 -32.51,-115.21 -147.58,-210.95 -303.54,-166.83z"/>
  </g>
 </g>
</svg>
